<?xml version="1.0" encoding="utf-8"?>
<!-- Generator: Adobe Illustrator 16.0.0, SVG Export Plug-In . SVG Version: 6.00 Build 0)  -->
<!DOCTYPE svg PUBLIC "-//W3C//DTD SVG 1.1//EN" "http://www.w3.org/Graphics/SVG/1.1/DTD/svg11.dtd">
<svg version="1.1" xmlns="http://www.w3.org/2000/svg" viewBox="0 0 720 720">
<g>
	<path fill="#AE4B00" d="M640.92,104.104v511.791c0,22.711-15.75,54.815-90.773,78.792C499.043,711.014,431.515,720,359.993,720
		c-11.447,0-22.781-0.225-33.961-0.689c-14.358-0.576-28.449-1.532-42.188-2.84c-30.727-2.897-59.667-7.58-85.599-13.88
		c-9.928-2.391-19.406-5.034-28.392-7.903c-4.837-1.547-9.436-3.122-13.795-4.739c-63.197-23.344-76.978-52.805-76.978-74.053
		V104.104l97.256,58.974L360,201.094l187.587-35.156L640.92,104.104z"/>
	<path fill="#803400" d="M547.587,165.938L360,201.094l-3.663-0.758v519.646c1.219,0.006,2.434,0.019,3.656,0.019
		c71.521,0,139.05-8.986,190.153-25.312c75.023-23.977,90.773-56.081,90.773-78.792V104.104L547.587,165.938z"/>
	<g>
		<rect x="511.411" y="212.217" fill="#AE4B00" width="42.188" height="295.72"/>
		<rect x="417.417" y="229.303" fill="#AE4B00" width="42.188" height="121.514"/>
		<rect x="417.417" y="463.57" fill="#AE4B00" width="42.188" height="76.899"/>
	</g>
	<g>
		<path fill="#803400" d="M326.032,442.378v276.933c-14.358-0.576-28.449-1.532-42.188-2.84V442.378H326.032z"/>
		<path fill="#803400" d="M198.246,603.211v99.38c-9.928-2.391-19.406-5.034-28.392-7.903c-4.837-1.547-9.436-3.122-13.795-4.739
			v-86.737H198.246z"/>
		<rect x="207.267" y="221.737" fill="#803400" width="42.188" height="63.506"/>
		<rect x="207.267" y="324.802" fill="#803400" width="42.188" height="44.101"/>
	</g>
	<path fill="#AE4B00" d="M359.999,208.214c-71.52,0-139.046-8.992-190.14-25.315c-75.025-23.971-90.773-56.077-90.773-78.791
		s15.749-54.82,90.773-78.791C220.953,8.992,288.479,0,359.999,0c71.519,0,139.047,8.992,190.14,25.315
		c75.025,23.971,90.773,56.077,90.773,78.791c0,22.714-15.748,54.82-90.773,78.791C499.046,199.222,431.52,208.214,359.999,208.214z
		 M359.999,42.188c-67.281,0-130.246,8.28-177.3,23.313c-45.066,14.398-61.424,30.975-61.424,38.605s16.359,24.208,61.425,38.606
		c47.054,15.033,110.019,23.312,177.3,23.312c67.28,0,130.245-8.28,177.3-23.312c45.067-14.398,61.427-30.977,61.427-38.606
		S582.367,79.899,537.3,65.5C490.244,50.468,427.279,42.188,359.999,42.188z"/>
</g>
<path fill="#803400" d="M550.139,25.315C499.046,8.992,431.52,0,359.999,0c-1.224,0-2.443,0.008-3.664,0.014v42.188
	c1.221-0.006,2.44-0.014,3.664-0.014c67.28,0,130.245,8.28,177.3,23.313c45.067,14.398,61.426,30.977,61.426,38.605
	s-16.358,24.208-61.426,38.606c-47.055,15.033-110.02,23.312-177.3,23.312c-1.224,0-2.443-0.008-3.664-0.014v42.188
	c1.221,0.005,2.44,0.014,3.664,0.014c71.519,0,139.047-8.991,190.14-25.315c75.025-23.971,90.773-56.077,90.773-78.791
	C640.912,81.393,625.164,49.286,550.139,25.315z"/>
<ellipse fill="#FF9A00" cx="360" cy="104.105" rx="259.819" ry="83.011"/>
<path fill="#D86100" d="M360,21.094c-1.225,0-2.442,0.01-3.663,0.014v165.997c1.221,0.005,2.438,0.014,3.663,0.014
	c143.494,0,259.818-37.166,259.818-83.012C619.818,58.26,503.494,21.094,360,21.094z"/>
<g>
	<g>
		<path fill="#FFFFFF" d="M129.675,432.714c6.551,2.714,9.841,4.021,16.45,6.534c0.312,6.049,0.471,9.072,0.783,15.12
			c3.12-1.99,6.141-3.517,9.065-4.567c2.923-1.052,5.798-1.732,8.628-2.043c2.829-0.31,5.719-0.243,8.669,0.201
			c2.949,0.444,6.025,1.183,9.193,2.142c9.604,2.907,19.152,7.814,25.555,15.652c6.209,7.6,8.92,17.61,8.751,27.431
			c0.032,19.994,0.067,39.987,0.094,59.981c-7.629-1.87-11.432-2.87-19.012-4.993c-0.035-19.565-0.073-39.132-0.105-58.697
			c-0.013-7.203-1.623-12.975-4.82-17.346s-7.949-7.491-14.225-9.475c-2.309-0.729-4.559-1.165-6.75-1.307
			c-2.193-0.142-4.472,0.104-6.834,0.729c-2.362,0.625-4.919,1.671-7.663,3.129c-2.745,1.459-5.824,3.386-9.228,5.766
			c0.047,20.334,0.096,40.669,0.142,61.003c-7.42-2.79-11.112-4.25-18.459-7.293C129.831,494.025,129.753,463.369,129.675,432.714z"
			/>
		<path fill="#FFFFFF" d="M346.599,519.486c0,2.259-0.036,4.152-0.11,5.675c-0.074,1.523-0.187,2.958-0.336,4.296
			c-26.463-0.89-52.566-3.212-78.77-7.014c0.01,9.399,3.203,17.278,9.583,23.067c8.008,7.268,17.628,9.405,27.665,10.757
			c3.125,0.421,6.555,0.473,9.837,0.508c3.279,0.035,6.45-0.042,9.511-0.225c3.059-0.183,5.989-0.441,8.789-0.772
			c2.798-0.33,5.393-0.739,7.785-1.21c0.001,5.236,0.002,7.858,0.003,13.095c-5.303,1.051-11.296,1.775-17.973,2.122
			c-6.677,0.347-13.591,0.187-20.738-0.508c-9.605-0.933-17.853-3.032-24.752-6.128c-6.9-3.096-12.547-7.096-16.951-11.897
			c-4.403-4.8-7.656-10.365-9.767-16.646c-2.109-6.279-3.168-13.153-3.178-20.602c-0.008-6.469,1.109-12.375,3.354-17.726
			c2.244-5.351,5.525-9.821,9.85-13.46c4.322-3.637,9.634-6.256,15.943-7.934c6.306-1.678,13.482-2.056,21.529-1.221
			c7.821,0.812,14.762,2.388,20.81,4.818c6.047,2.43,11.148,5.545,15.296,9.416c4.149,3.873,7.29,8.452,9.421,13.79
			C345.532,507.027,346.598,512.957,346.599,519.486z M326.313,516.402c0.221-4.076-0.266-7.84-1.461-11.296
			c-1.195-3.456-3.046-6.485-5.548-9.096c-2.501-2.609-5.619-4.745-9.348-6.429c-3.732-1.685-8.056-2.768-12.971-3.285
			c-4.245-0.447-8.114-0.226-11.605,0.68c-3.495,0.906-6.5,2.395-9.021,4.48c-2.523,2.089-4.561,4.716-6.114,7.897
			c-1.554,3.184-2.512,6.788-2.877,10.819C286.898,513.22,306.579,515.298,326.313,516.402z"/>
		<path fill="#FFFFFF" d="M478.599,558.637c-10.2,2.052-15.318,2.968-25.579,4.574c-10.135-10.294-20.179-20.667-30.149-31.12
			c-9.865,12.589-19.858,25.078-29.987,37.456c-10.075,0.552-15.12,0.723-25.206,0.852c14.749-15.899,29.266-31.986,43.577-48.28
			c-14.083-14.336-27.88-28.94-41.551-43.669c10.007-0.161,15.01-0.347,25.005-0.924c9.761,11.041,19.595,22.009,29.518,32.905
			c9.757-12.954,19.389-26.003,28.888-39.147c9.56-1.496,14.33-2.343,23.838-4.226c-13.751,17.819-27.713,35.455-41.916,52.916
			C449.381,533.068,463.888,545.953,478.599,558.637z"/>
		<path fill="#FFFFFF" d="M590.095,523.401c-4.157,2.636-8.467,5.02-12.932,7.146s-9.072,3.999-13.652,5.694
			c-9.228,3.416-21.086,6.378-30.374,2.195c-6.637-2.988-10.08-10.289-10.061-21.096c0.034-15.996,0.051-31.991,0.086-47.987
			c-10.188,2.873-20.455,5.47-30.781,7.8c0.008-5.348,0.009-8.019,0.017-13.366c10.329-2.328,20.596-4.931,30.787-7.802
			c0.019-10.11,0.028-15.167,0.047-25.277c7.591-3.786,11.372-5.741,18.907-9.78c-0.019,9.8-0.042,19.6-0.06,29.399
			c16.307-5.347,32.33-11.193,48.244-17.614c-0.014,5.35-0.019,8.021-0.032,13.371c-15.912,6.419-31.933,12.271-48.238,17.611
			c-0.033,15.57-0.062,31.14-0.094,46.71c-0.014,6.594,2.054,10.876,6.178,12.781c4.123,1.904,10.204,1.498,18.188-1.419
			c3.42-1.249,7.151-2.874,11.192-4.9c4.04-2.025,8.243-4.423,12.612-7.21C590.115,515.155,590.109,517.904,590.095,523.401z"/>
	</g>
</g>
<g>
	<g>
		<g>
			<path fill="#FF9A00" d="M146.905,373.235c-6.923-2.621-10.37-3.986-17.229-6.827c0.079-25.709,0.16-51.417,0.24-77.126
				c6.853,2.838,10.294,4.202,17.21,6.82C147.053,321.813,146.979,347.524,146.905,373.235z"/>
			<path fill="#FF9A00" d="M224.039,368.838c-0.017,9.024-2.843,15.451-8.455,19.156c-5.612,3.705-13.408,4.253-23.327,1.374
				c-6.215-1.804-11.668-4.658-16.378-8.504c-4.71-3.846-8.312-8.413-10.819-13.638c-2.506-5.226-3.749-10.758-3.733-16.576
				c0.024-9.055,2.759-15.123,8.237-18.323c5.477-3.2,13.181-3.216,23.17-0.324c6.209,1.798,11.707,4.441,16.475,7.99
				c4.767,3.549,8.438,7.766,11,12.711C222.772,357.651,224.05,363.02,224.039,368.838z M179.164,356.58
				c-0.013,5.487,1.02,9.968,3.107,13.424s5.5,5.909,10.247,7.285c4.708,1.364,8.108,0.896,10.186-1.337
				c2.077-2.232,3.125-6.116,3.136-11.638c0.011-5.486-1.027-9.876-3.112-13.188c-2.085-3.31-5.509-5.617-10.253-6.993
				c-4.707-1.365-8.09-1.04-10.172,1.046C180.222,347.264,179.178,351.06,179.164,356.58z"/>
			<path fill="#FF9A00" d="M296.355,353.394c-0.002,3.075-0.003,4.613-0.005,7.688c-4.159,0.45-6.238,0.657-10.391,1.035
				c1.896,2.715,2.842,5.604,2.839,8.678c-0.006,5.951-2.494,10.309-7.457,12.978c-4.964,2.669-11.851,3.37-20.629,1.901
				c-1.299-0.276-1.949-0.418-3.247-0.701c-1.062-0.283-1.594-0.426-2.656-0.714c-1.851,0.862-2.774,2.015-2.776,3.469
				c-0.003,2.183,3.293,3.903,9.91,4.996c4.49,0.741,6.739,1.091,11.24,1.747c7.262,1.059,12.81,3.045,16.628,6.104
				s5.728,7.095,5.724,12.153c-0.006,6.48-3.334,11.377-9.728,13.951c-8.535,3.436-18.798,2.894-27.81,1.242
				c-9.093-1.667-16.221-4.346-21.053-8.05c-4.833-3.704-7.239-8.03-7.23-12.89c0.006-3.339,1.241-5.855,3.709-7.573
				c2.468-1.718,10.88-2.577,10.88-2.577c0.017-0.066-3.448-2.427-4.817-4.212c-1.37-1.786-2.053-3.523-2.05-5.21
				c0.003-2.114,0.731-3.722,2.183-4.833c1.451-1.109,6.3-2.892,6.3-2.892c0.034-0.311-6.181-4.498-8.192-7.693
				c-2.013-3.195-3.013-6.685-3.006-10.453c0.01-6.05,2.344-10.22,7.011-12.591c4.667-2.37,11.335-2.734,20.035-1.294
				c1.85,0.306,4.046,0.804,6.588,1.476s4.169,1.116,4.88,1.35C282.463,351.826,287.089,352.408,296.355,353.394z M245.224,409.017
				c-0.003,2.084,1.18,3.953,3.556,5.591c2.375,1.638,5.705,2.847,9.997,3.579c6.457,1.102,11.531,1.115,15.205,0.158
				s5.516-2.749,5.519-5.328c0.002-2.083-1.085-3.666-3.256-4.765s-5.527-1.977-10.062-2.691c-3.738-0.59-5.606-0.898-9.336-1.547
				c-3.305-0.575-6.068-0.431-8.287,0.457C246.339,405.358,245.228,406.868,245.224,409.017z M251.828,365.12
				c-0.004,3.008,0.807,5.537,2.436,7.581c1.628,2.045,4.115,3.359,7.462,3.913c3.387,0.561,5.873,0.072,7.452-1.44
				s2.372-3.779,2.375-6.787c0.008-6.678-3.268-10.475-9.801-11.557C255.139,355.735,251.838,358.443,251.828,365.12z"/>
		</g>
		<g>
			<path fill="#FF9A00" d="M343.55,411.873c-7.281-0.199-10.921-0.354-18.195-0.773c0.011-25.725,0.023-51.45,0.037-77.174
				c7.267,0.419,10.903,0.573,18.177,0.772C343.563,360.422,343.556,386.147,343.55,411.873z"/>
			<path fill="#FF9A00" d="M392.848,412.191c-10.732,0.586-19.133-1.692-25.182-6.542s-9.074-11.857-9.074-20.884
				c0-9.291,2.796-16.447,8.383-21.589c5.587-5.14,13.312-7.835,23.165-8.329c9.417-0.472,16.74,1.182,21.979,5.19
				s7.855,9.898,7.861,17.765c0.002,2.937,0.004,4.404,0.006,7.341c-14.317,1.295-28.586,2.21-42.952,2.754
				c0.2,4.293,1.731,7.615,4.596,9.925c2.864,2.311,6.881,3.353,12.047,3.063c4.016-0.225,7.809-0.825,11.382-1.788
				c3.574-0.962,7.303-2.382,11.188-4.267c0.004,4.682,0.006,7.024,0.009,11.706c-3.172,1.621-6.566,2.895-10.178,3.816
				C402.465,411.275,398.055,411.907,392.848,412.191z M390.265,365.605c-3.854,0.194-6.875,1.328-9.061,3.438
				s-3.44,5.028-3.758,8.773c10.213-0.296,15.318-0.552,25.515-1.281c-0.083-3.73-1.255-6.526-3.519-8.412
				C397.178,366.239,394.118,365.411,390.265,365.605z"/>
			<path fill="#FF9A00" d="M450.502,405.257c-8.481-17.363-16.922-34.745-25.312-52.153c7.577-0.826,11.358-1.3,18.912-2.366
				c4.264,9.887,8.535,19.77,12.816,29.648c1.423,3.77,2.314,7.405,2.674,10.916c0.142-0.023,0.212-0.036,0.354-0.06
				c0.192-3.207,1.073-7.142,2.641-11.812c4.229-11.298,8.438-22.603,12.618-33.919c7.504-1.464,11.248-2.258,18.714-3.963
				c-8.235,20.231-16.54,40.433-24.931,60.6C461.608,403.507,457.911,404.13,450.502,405.257z"/>
			<path fill="#FF9A00" d="M532.772,387.76c-10.4,3.117-18.593,2.819-24.509-0.605c-5.915-3.424-8.892-9.72-8.908-18.744
				c-0.018-9.29,2.706-17.104,8.152-23.559s12.979-10.967,22.534-13.784c9.13-2.691,16.196-2.767,21.249,0.004
				c5.054,2.771,7.578,8.038,7.6,15.902c0.008,2.935,0.013,4.403,0.021,7.338c-13.759,4.669-27.559,8.954-41.545,12.89
				c0.202,4.245,1.699,7.202,4.488,8.836s6.696,1.733,11.702,0.226c3.889-1.171,7.554-2.666,11.001-4.472
				c3.448-1.806,7.038-4.107,10.772-6.91c0.013,4.68,0.021,7.021,0.033,11.701c-3.049,2.37-6.315,4.447-9.801,6.222
				C542.078,384.578,537.818,386.247,532.772,387.76z M530.18,341.793c-3.738,1.103-6.672,2.949-8.793,5.573
				c-2.121,2.625-3.337,5.838-3.639,9.657c9.942-2.702,14.895-4.161,24.742-7.296c-0.087-3.71-1.224-6.229-3.418-7.58
				C536.879,340.797,533.917,340.69,530.18,341.793z"/>
			<path fill="#FF9A00" d="M590.324,366.283c-6.859,2.842-10.307,4.206-17.229,6.827c-0.075-25.711-0.148-51.423-0.222-77.135
				c6.916-2.618,10.358-3.982,17.211-6.82C590.163,314.865,590.243,340.574,590.324,366.283z"/>
		</g>
	</g>
</g>
</svg>
